<?xml version="1.0" standalone="no"?>
<!DOCTYPE svg PUBLIC "-//W3C//DTD SVG 20010904//EN"
 "http://www.w3.org/TR/2001/REC-SVG-20010904/DTD/svg10.dtd">
<svg version="1.0" xmlns="http://www.w3.org/2000/svg"
 width="192.000000pt" height="192.000000pt" viewBox="0 0 192.000000 192.000000"
 preserveAspectRatio="xMidYMid meet">
<metadata>
Created by potrace 1.14, written by Peter Selinger 2001-2017
</metadata>
<g transform="translate(0.000000,192.000000) scale(0.100000,-0.100000)"
fill="#000000" stroke="none">
<path d="M582 1595 c-11 -9 -76 -71 -144 -138 l-123 -122 -2 -490 c-2 -269 -1
-499 2 -511 5 -21 5 -21 508 -22 l504 -2 140 140 140 141 1 492 c0 271 -1 499
-4 508 -4 14 -55 16 -502 17 -430 2 -501 0 -520 -13z m833 -144 l-110 -109
-337 0 c-241 1 -338 4 -339 12 0 6 -1 55 -2 109 l-2 97 450 0 450 0 -110 -109z
m-837 -19 l0 -88 -91 -2 -91 -1 89 89 c49 50 90 90 91 90 1 0 2 -40 2 -88z
m978 -797 c-3 -8 -152 -12 -207 -6 -4 1 -6 153 -6 339 l-1 337 107 108 106
108 3 -438 c1 -241 0 -442 -2 -448z m-990 656 c8 -1 12 -95 12 -338 l0 -338
-109 -110 -109 -110 0 447 c0 288 4 448 10 450 8 2 156 2 196 -1z m721 -4 c11
-11 9 -657 -2 -658 -52 -4 -647 -1 -652 4 -8 9 -10 628 -2 647 6 13 52 15 328
14 177 -1 324 -4 328 -7z m4 -736 c0 -14 1 -62 2 -106 l1 -80 -450 -2 -449 -3
110 109 110 109 338 0 337 -1 1 -26z m148 -57 c-46 -46 -87 -84 -90 -84 -4 0
-7 37 -7 83 l0 83 91 2 91 1 -85 -85z"/>
<path d="M758 1092 c-62 -8 -89 -97 -45 -146 38 -42 117 -41 124 2 3 22 -11
30 -22 12 -10 -16 -51 -12 -67 8 -17 20 -16 55 2 77 14 17 56 20 65 5 10 -16
21 -12 22 9 2 23 -37 38 -79 33z"/>
<path d="M1096 1083 c-55 -29 -50 -134 7 -158 72 -30 133 16 124 94 -3 29 -11
48 -23 55 -33 19 -81 23 -108 9z m73 -32 c15 -10 18 -78 3 -93 -18 -18 -56 -4
-66 24 -18 52 21 95 63 69z"/>
<path d="M870 1007 c0 -76 2 -85 20 -90 20 -5 21 -3 23 46 1 28 12 35 42 29
19 -3 23 -10 23 -33 -1 -35 12 -52 31 -40 9 6 14 32 15 77 3 84 0 94 -28 94
-17 0 -22 -6 -21 -27 0 -24 -4 -28 -32 -31 -30 -3 -32 -1 -30 25 2 22 -3 29
-20 31 -22 3 -23 1 -23 -81z"/>
</g>
</svg>
